<svg xmlns="http://www.w3.org/2000/svg" viewBox="0 0 200 200" width="200" height="200"><g fill="none" stroke="#2B3440" stroke-width="6" stroke-linejoin="round" stroke-linecap="round"><circle cx="100" cy="100" r="64" fill="#4A90D9"/><path d="M60 74 C74 62 94 66 98 78 C102 90 88 96 76 94 C64 92 52 84 60 74 Z" fill="#57A773" stroke="none"/><path d="M110 114 C126 106 142 116 140 130 C138 143 120 149 108 141 C97 134 100 119 110 114 Z" fill="#57A773" stroke="none"/><path d="M74 130 C84 126 92 134 88 142 C84 150 70 148 68 140 C67 135 69 132 74 130 Z" fill="#57A773" stroke="none"/><circle cx="100" cy="100" r="64" fill="none"/><ellipse cx="100" cy="100" rx="28" ry="64" fill="none" stroke-width="4"/><line x1="36" y1="100" x2="164" y2="100" stroke-width="4"/></g></svg>
